<svg xmlns="http://www.w3.org/2000/svg" xmlns:xlink="http://www.w3.org/1999/xlink" width="500" zoomAndPan="magnify" viewBox="0 0 375 374.999991" height="500" preserveAspectRatio="xMidYMid meet" version="1.0"><defs><clipPath id="b08e4041ee"><path d="M 153 97.148438 L 311 97.148438 L 311 269 L 153 269 Z M 153 97.148438 " clip-rule="nonzero"></path></clipPath><clipPath id="d978e54d55"><path d="M 71 143.175781 L 271 143.175781 L 271 267 L 71 267 Z M 71 143.175781 " clip-rule="nonzero"></path></clipPath><clipPath id="c7ffd2a95f"><path d="M 60.8125 264 L 281.3125 264 L 281.3125 269.925781 L 60.8125 269.925781 Z M 60.8125 264 " clip-rule="nonzero"></path></clipPath></defs><g clip-path="url(#b08e4041ee)"><path fill="#FFFFFF" d="M 310.613281 189.332031 C 307.621094 231.875 272.90625 266.15625 230.328125 268.652344 C 208.449219 269.933594 188.210938 263.023438 172.417969 250.683594 C 149.726562 232.957031 176.371094 197.761719 199.390625 215.058594 C 201.179688 216.402344 202.933594 217.976562 204.617188 219.808594 C 221.828125 238.414062 227.335938 221.082031 238.609375 231.476562 C 245.714844 238.054688 253.121094 233.746094 259.582031 228.429688 C 260.792969 227.433594 260.601562 225.53125 259.222656 224.773438 C 253.828125 221.804688 248.359375 218.132812 246.683594 214.910156 C 248.800781 217.679688 256.039062 220.550781 262.765625 222.738281 C 264.222656 223.210938 265.8125 222.914062 267.007812 221.953125 C 267.921875 221.210938 268.8125 220.550781 269.625 219.992188 C 277.480469 214.902344 276.011719 207.25 271.945312 198.320312 C 271.945312 198.320312 290.925781 171.835938 280.5 147.226562 C 280.621094 148.394531 281.492188 159.765625 269.851562 174.105469 C 264.363281 180.832031 258.027344 183.179688 251.203125 182.5625 C 253.550781 176.480469 255.742188 169.121094 254.972656 164.53125 C 251.925781 169.191406 246.820312 175.28125 239.210938 178.921875 C 234.550781 176.679688 229.8125 173.484375 225.046875 169.792969 C 226.121094 163.632812 228.792969 158.398438 231.359375 154.503906 C 231.757812 153.929688 231.15625 153.160156 230.511719 153.429688 C 227.492188 154.601562 224.054688 156.894531 220.832031 159.460938 C 219.882812 161.554688 218.886719 164.027344 218.6875 164.46875 C 218.957031 163.34375 219.304688 161.90625 219.785156 160.332031 C 220.214844 158.964844 220.632812 157.515625 221.15625 156.066406 C 222.027344 153.476562 223.128906 150.855469 224.324219 148.910156 C 224.796875 148.132812 224 147.21875 223.15625 147.539062 C 221.035156 148.386719 218.117188 149.609375 215.074219 151.082031 C 212.726562 152.226562 210.308594 153.578125 208.144531 154.949219 C 205.300781 156.789062 202.90625 158.789062 201.757812 160.832031 C 202.183594 159.339844 204.425781 156.363281 206.792969 153.648438 C 204.777344 151.675781 202.75 149.703125 200.804688 147.785156 C 184.347656 131.554688 172.519531 126.535156 153.121094 136.683594 C 168.359375 113.050781 194.921875 97.414062 225.144531 97.414062 C 274.53125 97.414062 314.140625 139.199219 310.613281 189.332031 Z M 310.613281 189.332031 " fill-opacity="1" fill-rule="nonzero"></path></g><g clip-path="url(#d978e54d55)"><path fill="#FFFFFF" d="M 270.042969 258.96875 C 270.011719 260.144531 269.347656 260.800781 268.050781 260.929688 L 268.015625 260.929688 L 258.019531 260.941406 C 256.445312 263.007812 254.875 264.253906 253.082031 264.992188 C 251.257812 265.738281 249.21875 265.945312 246.710938 265.933594 C 244.59375 265.921875 242.777344 265.828125 241.125 265.277344 C 239.496094 264.734375 238.050781 263.753906 236.679688 261.988281 L 209.628906 262.101562 C 208.59375 263.261719 207.503906 264.179688 206.347656 264.851562 C 205.152344 265.550781 203.886719 265.988281 202.554688 266.160156 L 202.546875 266.160156 C 200.285156 266.398438 198.25 266.519531 196.445312 266.519531 C 194.632812 266.519531 193.035156 266.398438 191.660156 266.15625 L 191.65625 266.15625 C 190.789062 265.980469 189.992188 265.671875 189.273438 265.238281 C 188.59375 264.824219 187.984375 264.300781 187.441406 263.664062 L 176.40625 263.492188 L 176.394531 263.492188 C 176.046875 263.480469 175.761719 263.292969 175.53125 262.945312 C 175.378906 262.710938 175.25 262.394531 175.148438 261.996094 L 146.554688 262.566406 C 145.8125 263.683594 144.933594 264.546875 143.929688 265.152344 C 142.871094 265.789062 141.679688 266.148438 140.347656 266.222656 L 140.328125 266.222656 L 118.460938 266.167969 C 117.125 266.164062 115.984375 265.804688 115.042969 265.140625 C 114.128906 264.492188 113.410156 263.5625 112.890625 262.394531 L 108.414062 262.5 C 107.890625 263.648438 107.171875 264.464844 106.285156 265 C 105.351562 265.5625 104.234375 265.8125 102.964844 265.800781 L 77.5 265.578125 L 77.4375 265.578125 L 77.378906 265.554688 C 76.550781 265.230469 75.859375 264.597656 75.316406 263.65625 C 74.832031 262.816406 74.457031 261.71875 74.199219 260.371094 L 72.359375 260.46875 L 71.996094 260.488281 L 71.996094 260.125 L 71.9375 254.269531 L 71.9375 254.253906 C 72.070312 249.722656 72.929688 245.851562 74.335938 243.074219 C 75.761719 240.261719 77.761719 238.550781 80.144531 238.371094 L 89.015625 238.371094 C 89.453125 237.921875 89.96875 237.570312 90.558594 237.320312 C 91.183594 237.054688 91.898438 236.898438 92.6875 236.867188 L 102.257812 236.867188 C 102.96875 235.878906 104.609375 235.175781 107.171875 234.769531 C 109.730469 234.359375 113.242188 234.222656 117.710938 234.363281 C 117.890625 226.546875 118.078125 219.535156 118.273438 213.332031 C 118.476562 207.015625 118.683594 201.53125 118.90625 196.886719 C 118.960938 195.664062 119.253906 194.777344 119.796875 194.023438 C 120.332031 193.28125 121.105469 192.6875 122.140625 192.035156 C 124.855469 190.320312 127.742188 188.835938 131.042969 187.5625 C 134.273438 186.3125 137.894531 185.257812 142.136719 184.378906 L 143.390625 145.65625 C 143.425781 144.582031 143.960938 143.945312 144.769531 143.582031 C 145.511719 143.25 146.484375 143.175781 147.488281 143.207031 C 148.734375 143.25 150.085938 143.664062 151.042969 144.429688 C 151.878906 145.097656 152.425781 146.03125 152.390625 147.21875 L 151.15625 185.308594 C 151.5 185.394531 151.855469 185.484375 152.226562 185.582031 C 152.648438 185.6875 153.070312 185.804688 153.503906 185.921875 L 157.496094 183.296875 C 157.761719 182.296875 158.191406 181.578125 158.785156 181.144531 C 159.417969 180.679688 160.214844 180.542969 161.171875 180.734375 L 161.203125 180.742188 L 170.09375 183.453125 C 174.328125 183.605469 178.382812 183.898438 182.253906 184.332031 C 185.996094 184.75 189.582031 185.296875 193.007812 185.976562 L 193.515625 159.785156 C 193.519531 158.96875 194.355469 158.445312 195.53125 158.226562 C 196.046875 158.128906 196.636719 158.085938 197.242188 158.105469 C 197.847656 158.125 198.476562 158.203125 199.074219 158.335938 C 200.917969 158.753906 202.519531 159.75 202.535156 161.414062 L 202.535156 161.421875 L 202.015625 188.175781 C 202.949219 188.449219 203.863281 188.730469 204.746094 189.023438 C 205.722656 189.34375 206.6875 189.683594 207.628906 190.03125 L 207.683594 190.050781 L 207.730469 190.089844 C 208.105469 190.410156 208.523438 190.808594 208.988281 191.292969 C 209.417969 191.742188 209.886719 192.261719 210.394531 192.851562 L 216.503906 192.90625 C 216.910156 192.910156 217.351562 193.042969 217.773438 193.238281 C 218.257812 193.464844 218.726562 193.773438 219.082031 194.054688 C 220.652344 194.292969 221.816406 194.566406 222.613281 194.871094 C 223.527344 195.222656 224 195.648438 224.089844 196.15625 L 224.089844 196.199219 L 224.183594 197.890625 C 225.238281 197.570312 226.441406 197.363281 227.792969 197.277344 C 229.320312 197.179688 231.039062 197.234375 232.949219 197.4375 L 232.957031 197.4375 C 236.5 197.921875 239.855469 198.5 243.023438 199.164062 C 246.195312 199.832031 249.1875 200.585938 251.988281 201.429688 C 253.917969 202.015625 255.539062 202.816406 256.722656 204.042969 C 257.921875 205.277344 258.667969 206.921875 258.839844 209.183594 L 258.839844 209.210938 L 258.78125 224.398438 C 260.328125 224.359375 262.1875 224.503906 263.691406 224.816406 C 265.125 225.113281 266.261719 225.582031 266.574219 226.226562 C 266.867188 226.753906 267.082031 227.511719 267.210938 228.496094 C 267.339844 229.460938 267.394531 230.652344 267.375 232.070312 C 267.347656 233.871094 265.597656 234.597656 264.152344 235.175781 C 264.921875 236.054688 265.617188 237.050781 266.296875 238.148438 C 267.050781 239.375 267.769531 240.6875 268.535156 242.097656 C 268.976562 242.242188 269.320312 242.433594 269.566406 242.675781 C 269.863281 242.964844 270.023438 243.324219 270.035156 243.746094 L 270.035156 258.960938 Z M 217.902344 199.382812 L 217.871094 197.964844 C 217.839844 197.355469 217.578125 196.90625 217.1875 196.605469 C 216.710938 196.238281 216.046875 196.074219 215.363281 196.085938 C 215.050781 196.09375 214.558594 196.101562 213.894531 196.101562 C 213.585938 196.101562 213.238281 196.101562 212.851562 196.101562 L 214.007812 197.839844 C 214.136719 198.035156 214.164062 198.234375 214.09375 198.441406 C 214.039062 198.605469 213.910156 198.761719 213.71875 198.898438 L 213.664062 198.933594 L 213.597656 198.949219 L 210.242188 199.78125 L 210.390625 200.429688 L 217.898438 199.378906 Z M 217.902344 199.382812 " fill-opacity="1" fill-rule="evenodd"></path></g><path fill="#13314f" d="M 264.285156 232.53125 C 263.304688 233.148438 261.367188 233.796875 258.472656 234.207031 C 258.472656 234.207031 258.441406 231.539062 258.382812 227.015625 C 260.480469 226.996094 263.71875 227.074219 264.359375 227.507812 C 264.820312 227.789062 265.046875 229.027344 265.035156 231.21875 C 265.03125 231.949219 264.976562 232.09375 264.285156 232.53125 Z M 147.5625 147.648438 C 147.652344 146.320312 148.476562 146.398438 150.265625 147.269531 C 150.15625 145.371094 145.570312 144.308594 145.363281 146.34375 L 141.828125 247.765625 C 141.605469 251.804688 142.730469 254.472656 145.195312 255.773438 C 144.34375 254.265625 144.375 253.464844 144.757812 253.402344 C 145.320312 253.308594 146.242188 254.457031 146.632812 254.597656 C 147.757812 255.011719 148.363281 254.671875 147.746094 253.917969 C 146.679688 252.46875 146.082031 250.457031 145.945312 247.886719 C 145.726562 236.691406 145.40625 236.710938 144.984375 247.941406 C 144.941406 249.152344 143.78125 249.214844 143.859375 247.914062 C 146.335938 180.859375 147.5625 147.648438 147.5625 147.648438 Z M 121.527344 237.773438 L 137.199219 236.886719 L 121.554688 236.886719 L 121.628906 234.554688 L 126.609375 234.042969 L 126.640625 234.039062 L 126.65625 234.035156 C 127.441406 233.867188 128.074219 233.496094 128.558594 232.921875 L 128.558594 232.917969 C 129.027344 232.363281 129.34375 231.625 129.507812 230.703125 L 129.515625 230.664062 L 129.515625 230.628906 L 129.691406 220.941406 L 129.691406 220.929688 C 129.691406 220.699219 129.675781 220.484375 129.648438 220.285156 C 129.546875 219.550781 129.277344 218.992188 128.835938 218.613281 L 128.832031 218.613281 C 128.394531 218.234375 127.808594 218.042969 127.074219 218.050781 L 127.070312 218.050781 C 126.867188 218.050781 126.65625 218.066406 126.433594 218.097656 L 126.414062 218.101562 L 126.398438 218.105469 L 122.113281 219.078125 L 122.757812 198.746094 C 122.757812 198.746094 135.945312 194.898438 139.925781 193.464844 C 136 194.304688 127.804688 196.613281 124.230469 197.28125 C 122.164062 197.664062 123.394531 196.636719 123.746094 196.199219 C 125.941406 193.457031 136.214844 189.828125 140.675781 188.804688 C 140.769531 191.042969 141.070312 197.199219 141.804688 204.144531 C 141.804688 204.144531 142 198.226562 142.386719 186.394531 C 142.386719 186.394531 141.828125 186.585938 140.710938 186.96875 C 128.4375 190.359375 121.957031 193.796875 121.265625 197.289062 C 119.832031 226.824219 119.816406 241.746094 119.992188 241.78125 C 143.035156 240.828125 143.511719 240.519531 121.425781 240.855469 L 121.523438 237.765625 Z M 150.644531 189.648438 C 152.199219 190.144531 153.191406 190.183594 153.398438 189.730469 C 153.4375 189.351562 153.769531 189.003906 155.921875 187.320312 C 155.921875 187.320312 154.867188 187.914062 153.910156 188.375 C 153.910156 188.375 153.273438 188.285156 150.644531 187.628906 Z M 198.199219 162.703125 C 198.277344 161.375 199.101562 161.453125 200.898438 162.324219 C 200.769531 160.425781 196.175781 159.363281 195.988281 161.394531 L 195.363281 186.910156 L 197.546875 187.449219 Z M 181.859375 249.890625 C 182.046875 237.425781 186.625 230.671875 191.996094 228.765625 C 196.8125 227.054688 202.859375 229.867188 205.757812 239.679688 C 202.386719 231.453125 196.417969 229.472656 192.390625 230.695312 C 186.929688 232.355469 182.832031 239.253906 181.859375 249.886719 Z M 87.832031 252.660156 C 87.75 257.714844 88.546875 260.660156 89.988281 261.957031 C 91.472656 263.0625 92.890625 261.890625 94.25 258.441406 C 91.429688 263.460938 88.179688 262.019531 87.832031 252.660156 Z M 79.804688 247.082031 C 78.335938 247.082031 76.976562 250.015625 76.769531 253.632812 C 76.558594 257.246094 77.582031 260.179688 79.050781 260.179688 C 80.515625 260.179688 81.875 257.246094 82.085938 253.632812 C 82.292969 250.015625 81.273438 247.082031 79.804688 247.082031 Z M 80.378906 258.78125 C 79.378906 257.195312 79.105469 255.269531 79.566406 253 C 79.324219 255.511719 79.6875 257.273438 80.660156 258.289062 C 81.5625 255.800781 81.898438 253.367188 81.65625 251 C 81.304688 248.53125 80.550781 247.449219 79.398438 247.757812 C 78.261719 248.417969 77.601562 250.085938 77.414062 252.761719 C 77.613281 252.769531 78.097656 252.78125 78.34375 251.898438 C 78.644531 250.808594 79.015625 249.90625 79.519531 249.332031 C 78.507812 251.457031 78.207031 254.21875 78.683594 256.558594 C 78.503906 253.132812 79.222656 250.273438 80.449219 249.023438 C 78.769531 252.050781 78.449219 256.820312 80.179688 259.015625 C 80.261719 258.984375 80.328125 258.839844 80.378906 258.777344 Z M 81.277344 253.410156 C 80.785156 253.53125 80.585938 253.382812 80.671875 252.980469 C 80.839844 252.246094 81.128906 251.800781 81.542969 251.636719 C 81.582031 252.644531 81.542969 253.492188 81.421875 254.171875 C 81.433594 253.523438 81.386719 253.273438 81.277344 253.414062 Z M 80.542969 252.148438 C 79.722656 253.667969 79.933594 255.339844 80.867188 256.054688 C 81.042969 256.039062 81.121094 255.855469 81.105469 255.496094 C 80.222656 255.09375 79.941406 253.703125 80.542969 252.148438 Z M 75.523438 253.210938 C 75.445312 258.164062 76.226562 261.046875 77.636719 262.320312 C 79.089844 263.398438 80.480469 262.25 81.808594 258.878906 C 79.046875 263.796875 75.863281 262.378906 75.523438 253.210938 Z M 92.25 245.640625 C 90.675781 245.640625 89.21875 248.78125 88.996094 252.660156 C 88.773438 256.535156 89.867188 259.675781 91.441406 259.675781 C 93.015625 259.675781 94.472656 256.535156 94.695312 252.660156 C 94.917969 248.78125 93.828125 245.640625 92.25 245.640625 Z M 92.863281 258.179688 C 91.796875 256.484375 91.503906 254.421875 91.992188 251.984375 C 91.730469 254.675781 92.121094 256.566406 93.164062 257.65625 C 94.132812 254.988281 94.492188 252.382812 94.238281 249.84375 C 93.855469 247.195312 93.050781 246.035156 91.816406 246.367188 C 90.601562 247.074219 89.894531 248.863281 89.691406 251.730469 C 89.902344 251.742188 90.421875 251.75 90.6875 250.804688 C 91.007812 249.640625 91.402344 248.667969 91.945312 248.058594 C 90.859375 250.335938 90.539062 253.292969 91.054688 255.804688 C 90.859375 252.128906 91.625 249.070312 92.941406 247.726562 C 91.140625 250.972656 90.800781 256.082031 92.652344 258.433594 C 92.738281 258.40625 92.8125 258.246094 92.863281 258.179688 Z M 93.828125 252.425781 C 93.304688 252.550781 93.085938 252.394531 93.179688 251.964844 C 93.359375 251.179688 93.671875 250.699219 94.113281 250.523438 C 94.15625 251.605469 94.113281 252.511719 93.980469 253.238281 C 93.996094 252.546875 93.945312 252.277344 93.828125 252.429688 Z M 93.039062 251.070312 C 92.164062 252.699219 92.386719 254.492188 93.386719 255.257812 C 93.574219 255.242188 93.65625 255.042969 93.640625 254.660156 C 92.699219 254.230469 92.398438 252.738281 93.039062 251.066406 Z M 198.296875 254.171875 C 198.363281 253.773438 197.890625 253.261719 197.800781 253.195312 C 197.488281 252.964844 197.257812 253.28125 196.960938 253.582031 C 196.742188 253.804688 196.464844 254.066406 196.210938 254.246094 C 196.015625 254.382812 195.695312 254.488281 195.574219 255.082031 C 195.472656 255.597656 195.75 256 196.03125 256.097656 C 196.671875 256.324219 197.28125 255.535156 197.714844 255.0625 C 197.8125 254.953125 198.257812 254.40625 198.296875 254.171875 Z M 189.484375 253.972656 C 189.636719 254.71875 190.921875 255.925781 191.449219 255.988281 C 191.753906 256.027344 192.039062 255.507812 191.933594 255.09375 C 191.855469 254.773438 191.5 254.59375 191.289062 254.414062 C 191.011719 254.183594 190.867188 253.988281 190.644531 253.730469 C 190.53125 253.597656 190.445312 253.503906 190.34375 253.359375 C 190.226562 253.191406 190.21875 253.09375 189.976562 253.078125 C 189.628906 253.058594 189.398438 253.5625 189.484375 253.972656 Z M 191.460938 256.5625 C 191.761719 256.945312 193.289062 257.253906 193.816406 257.269531 C 194.660156 257.296875 195.535156 257.0625 196.21875 256.628906 C 195.648438 256.53125 195.4375 256.433594 195.328125 255.691406 C 195.222656 254.960938 195.460938 254.554688 195.679688 254.136719 C 194.890625 254.34375 194.667969 254.710938 193.417969 254.585938 C 193.027344 254.546875 192.652344 254.449219 192.292969 254.316406 C 191.804688 254.132812 191.496094 253.886719 191.3125 253.816406 L 191.429688 253.980469 C 191.933594 254.523438 192.117188 254.410156 192.199219 255.078125 C 192.304688 255.972656 191.914062 256.316406 191.464844 256.558594 Z M 189.136719 254.335938 C 189.03125 253.632812 189.273438 252.5625 190.007812 252.707031 L 189.183594 251.328125 C 188.882812 250.761719 188.558594 249.90625 188.46875 249.746094 C 188.464844 249.734375 188.453125 249.722656 188.445312 249.710938 C 188.453125 250.351562 188.445312 250.808594 187.929688 250.511719 C 187.695312 250.371094 187.511719 250.222656 187.355469 249.972656 L 187.203125 249.722656 C 187.347656 250.878906 188.039062 252.453125 188.527344 253.347656 C 188.652344 253.578125 189 254.222656 189.136719 254.335938 Z M 201.117188 248.023438 C 200.910156 248.625 200.851562 249.363281 200.308594 249.453125 C 200.074219 249.496094 199.75 249.378906 199.554688 249.25 C 199.285156 249.078125 199.226562 248.960938 199.09375 248.609375 C 198.988281 248.902344 198.863281 249.714844 198.457031 250.832031 C 198.253906 251.386719 197.726562 252.382812 197.453125 252.609375 L 197.511719 252.652344 C 197.519531 252.65625 197.53125 252.667969 197.542969 252.667969 C 197.664062 252.726562 197.75 252.691406 197.925781 252.839844 C 198.273438 253.128906 198.753906 253.769531 198.480469 254.375 C 198.257812 254.867188 197.878906 255.367188 197.566406 255.71875 L 197.226562 256.179688 C 197.59375 256 198 255.496094 198.285156 255.113281 C 198.753906 254.476562 198.542969 254.714844 198.851562 254.238281 C 199.105469 253.851562 199.320312 253.710938 199.746094 252.914062 C 200.324219 251.832031 201.039062 249.761719 201.113281 248.023438 Z M 187.871094 244.664062 C 187.167969 244.289062 187.257812 245.910156 187.253906 246.605469 C 187.25 247.054688 187.257812 247.519531 187.292969 247.957031 C 187.320312 248.296875 187.316406 248.878906 187.527344 249.007812 C 188.292969 249.476562 188.167969 247.59375 188.167969 247.054688 C 188.167969 246.773438 188.191406 245.207031 188.144531 244.996094 C 188.097656 244.765625 188.015625 244.742188 187.871094 244.667969 Z M 194.816406 246.640625 C 194.484375 246.570312 194.132812 246.566406 193.816406 246.675781 C 193.667969 246.726562 193.546875 246.796875 193.425781 246.882812 C 193.277344 246.996094 193.195312 247.132812 193.085938 247.214844 C 192.503906 247.648438 191.835938 247.429688 191.332031 247.117188 C 191.375 247.785156 191.671875 248.488281 191.894531 248.859375 C 192.15625 249.289062 192.613281 249.621094 193.21875 249.59375 C 194.390625 249.527344 194.929688 247.375 194.816406 246.640625 Z M 189.390625 247.441406 C 189.332031 247.902344 189.5625 247.859375 189.835938 247.867188 C 189.667969 248.335938 189.511719 248.445312 189.496094 249.152344 C 189.773438 249.121094 190.066406 249.042969 190.347656 249.125 C 190.621094 249.207031 190.730469 249.535156 190.570312 249.894531 C 190.292969 250.054688 190.027344 250.050781 189.832031 249.851562 C 190.003906 250.714844 190.488281 251.527344 191.117188 251.722656 C 191.234375 251.429688 191.296875 251.1875 191.5 251.058594 C 191.75 250.902344 192.011719 251.003906 192.132812 251.285156 C 192.082031 251.722656 191.765625 251.75 191.578125 252.035156 C 192.015625 252.699219 192.847656 252.855469 193.710938 252.8125 C 195.964844 252.695312 197.632812 249.992188 197.636719 246.644531 C 197.511719 246.53125 196.863281 245.710938 196.429688 246.109375 C 196.539062 246.234375 197.121094 246.824219 196.734375 247.058594 C 196.488281 247.210938 196.117188 247.222656 195.875 246.851562 C 195.871094 246.84375 195.863281 246.832031 195.859375 246.824219 L 195.796875 246.730469 C 195.628906 248.210938 195.378906 248.390625 195.125 249.234375 C 195.691406 249.226562 196.339844 249.636719 196.019531 250.3125 C 195.878906 250.613281 195.652344 250.71875 195.382812 250.492188 C 195.011719 250.179688 195.144531 250.019531 194.933594 249.777344 C 194.671875 249.773438 194.757812 249.925781 194.59375 250.015625 C 194.527344 250.050781 194.234375 250.09375 194.148438 250.109375 C 194.210938 250.269531 194.28125 250.265625 194.359375 250.476562 C 194.421875 250.65625 194.429688 250.859375 194.410156 251.082031 C 194.28125 251.277344 194.140625 251.269531 194.078125 251.53125 L 194.28125 251.667969 C 194.285156 251.671875 194.300781 251.675781 194.308594 251.683594 C 194.359375 252.71875 193.554688 252.125 193.367188 251.824219 C 193.066406 251.316406 193.515625 250.976562 193.691406 250.765625 C 193.808594 250.628906 193.789062 250.53125 193.75 250.335938 C 193.34375 250.246094 192.515625 250.636719 191.734375 249.472656 C 191.210938 248.695312 191.230469 247.796875 191.074219 247.636719 C 190.9375 247.492188 190.648438 247.53125 190.550781 247.617188 C 190.511719 247.1875 190.644531 245.804688 189.65625 245.910156 C 189.808594 246.121094 190.300781 246.378906 190.191406 246.824219 C 190.097656 247.214844 189.605469 247.253906 189.386719 247.441406 Z M 199.449219 246.007812 C 199.460938 246.554688 199.4375 247.105469 199.421875 247.652344 C 199.394531 248.523438 199.359375 249.152344 200.179688 248.957031 C 201.09375 248.746094 201.183594 245.308594 200.609375 244.746094 C 200.375 244.519531 199.929688 244.457031 199.671875 244.722656 C 199.425781 244.976562 199.433594 245.503906 199.449219 246.007812 Z M 189.953125 243.933594 C 189.613281 244.84375 190.777344 245.226562 191.03125 244.605469 C 191.246094 244.078125 190.785156 242.582031 190.265625 243.222656 C 190.28125 243.671875 190.535156 243.703125 190.667969 243.917969 C 190.449219 244.832031 190.28125 243.828125 189.949219 243.929688 Z M 196.167969 243.871094 C 195.996094 244.082031 195.78125 243.964844 195.542969 244.046875 C 194.75 244.320312 195.964844 245.363281 196.402344 244.863281 C 196.632812 244.597656 196.957031 243.882812 196.851562 243.480469 C 196.683594 242.816406 196.007812 242.878906 195.832031 243.074219 C 195.964844 243.328125 196.21875 243.480469 196.167969 243.871094 Z M 193.820312 242.457031 C 193.824219 243.175781 195.054688 243.144531 194.953125 241.878906 C 194.917969 241.457031 194.738281 241.035156 194.410156 241.15625 C 193.828125 241.378906 194.417969 241.804688 194.382812 242.023438 C 194.246094 242.328125 194.050781 242.320312 193.820312 242.453125 Z M 192.074219 242.664062 C 192.027344 242.621094 191.652344 242.085938 191.558594 242.492188 C 191.386719 243.214844 193.117188 244.046875 192.851562 241.90625 C 192.804688 241.527344 192.441406 241.105469 192.175781 241.230469 C 191.761719 241.414062 192.640625 242.359375 192.078125 242.664062 Z M 190.238281 252.113281 C 190.304688 252.304688 190.363281 252.316406 190.472656 252.457031 C 190.570312 252.589844 190.605469 252.636719 190.71875 252.753906 C 191.226562 253.320312 191.910156 253.792969 192.582031 254.015625 C 194.609375 254.695312 196.570312 253.554688 197.804688 251.375 C 199.042969 249.1875 199.382812 245.90625 198.515625 243.363281 C 198.0625 242.046875 197.601562 241.296875 196.90625 240.535156 C 195.5625 239.066406 193.546875 238.714844 191.898438 239.777344 L 191.320312 240.25 C 191.785156 240.042969 192.066406 239.824219 192.621094 239.675781 C 193.117188 239.546875 193.664062 239.535156 194.167969 239.632812 C 195.085938 239.816406 195.9375 240.378906 196.484375 241.011719 C 197.019531 241.632812 197.582031 242.488281 197.914062 243.59375 C 199.71875 249.628906 195.421875 255.523438 191.273438 252.972656 C 190.742188 252.644531 190.550781 252.34375 190.246094 252.105469 Z M 196.667969 237.527344 C 196.328125 237.375 195.824219 237.515625 195.710938 237.878906 C 195.53125 238.433594 195.644531 238.773438 196 239.035156 C 197.578125 240.214844 197.691406 241.121094 198.347656 240.097656 C 198.613281 239.6875 198.367188 239.136719 198.191406 238.878906 C 197.925781 238.484375 197.191406 237.757812 196.667969 237.527344 Z M 191.964844 237.636719 C 191.695312 237.507812 191.296875 237.882812 191.101562 238.042969 C 190.792969 238.300781 189.828125 239.085938 189.65625 239.449219 C 189.457031 239.867188 189.53125 240.417969 189.828125 240.53125 C 190.140625 240.648438 190.503906 240.207031 190.679688 240.042969 C 190.992188 239.746094 192.128906 238.875 192.199219 238.738281 C 192.402344 238.332031 192.242188 237.769531 191.96875 237.640625 Z M 194.753906 235.636719 C 200.734375 236.300781 203.859375 246.398438 200.015625 253.753906 C 199.484375 254.769531 198.691406 255.773438 197.941406 256.453125 C 196.566406 257.699219 194.910156 258.347656 193.195312 258.136719 C 189.089844 257.636719 185.886719 252.421875 186.304688 246.039062 C 186.683594 240.207031 190.222656 235.140625 194.753906 235.636719 Z M 266.378906 245.464844 C 266.832031 256.925781 266.976562 259.300781 267.597656 258.164062 C 267.597656 258.804688 267.613281 254.164062 267.65625 244.246094 C 267.65625 244.246094 248.570312 243.027344 210.398438 240.589844 C 210.554688 252.039062 210.632812 257.761719 210.632812 257.761719 C 210.84375 258.492188 211.328125 258.839844 212.082031 258.804688 C 216.53125 258.769531 220.957031 258.75 220.957031 258.75 C 219.6875 258.085938 218.769531 257.945312 218.777344 257.5625 C 218.953125 248.726562 219.042969 244.304688 219.042969 244.304688 C 216.53125 243.109375 215.273438 242.507812 215.273438 242.507812 C 243.425781 244.054688 257.503906 244.828125 257.503906 244.828125 C 260.265625 246.359375 262.410156 248.835938 263.941406 252.253906 C 263.902344 248.503906 263.882812 246.625 263.882812 246.625 C 264.121094 245.28125 264.957031 244.894531 266.375 245.464844 Z M 122.820312 225.007812 L 123.039062 225.007812 C 123.1875 225.007812 123.308594 225.128906 123.304688 225.273438 L 123.273438 227.582031 C 123.269531 227.730469 123.148438 227.847656 123.003906 227.847656 L 122.785156 227.847656 C 122.636719 227.847656 122.519531 227.726562 122.519531 227.582031 L 122.550781 225.273438 C 122.554688 225.125 122.675781 225.007812 122.820312 225.007812 Z M 121.703125 232.148438 L 122.054688 221.109375 C 122.222656 220.335938 122.710938 219.875 123.496094 219.71875 L 126.589844 219.015625 C 126.769531 218.992188 126.933594 218.976562 127.085938 218.976562 L 127.089844 218.976562 C 127.589844 218.976562 127.972656 219.085938 128.238281 219.316406 C 128.5 219.542969 128.667969 219.914062 128.734375 220.410156 C 128.757812 220.570312 128.769531 220.746094 128.773438 220.929688 L 128.601562 230.574219 C 128.460938 231.316406 128.214844 231.898438 127.859375 232.320312 C 127.515625 232.730469 127.058594 232.996094 126.492188 233.121094 L 123.195312 233.460938 C 122.214844 233.582031 121.609375 233.265625 121.710938 232.144531 Z M 118.191406 236.453125 C 118.191406 237.492188 118.191406 238.007812 118.191406 238.007812 C 113.910156 237.441406 109.882812 237.472656 106.9375 237.847656 C 106.1875 237.859375 105.421875 237.859375 105.863281 237.441406 C 107.34375 236.28125 112.222656 236.03125 118.191406 236.457031 Z M 97.371094 255.132812 C 97.585938 255.71875 97.953125 255.757812 98.472656 255.246094 C 98.539062 247.539062 97.265625 242.433594 94.644531 239.933594 C 96.148438 240.4375 97.753906 242.335938 99.457031 245.617188 C 99.457031 245.617188 103.132812 245.617188 110.480469 245.617188 C 109.925781 242.246094 108.109375 239.925781 105.027344 238.65625 C 105.027344 238.65625 100.675781 238.679688 91.972656 238.714844 C 87.511719 240.074219 85.328125 246.707031 85.417969 258.609375 C 85.894531 246.929688 88.136719 240.785156 92.148438 240.164062 C 95.277344 240.621094 97.015625 245.613281 97.367188 255.128906 Z M 84.839844 252.988281 C 84.238281 253.085938 83.9375 253.132812 83.9375 253.132812 C 83.296875 245.414062 81.90625 241.566406 79.761719 241.589844 C 76.445312 241.757812 74.335938 247.386719 73.4375 258.46875 C 73.605469 247.398438 75.710938 241.289062 79.761719 240.140625 C 85.367188 240.140625 88.171875 240.140625 88.171875 240.140625 C 86.625 241.300781 85.851562 241.878906 85.851562 241.878906 C 84.34375 241.878906 83.585938 241.878906 83.585938 241.878906 C 82.886719 241.347656 82.210938 241 81.554688 240.832031 C 83.609375 243.101562 84.699219 247.148438 84.832031 252.988281 Z M 123.820312 259.136719 C 116.394531 258.800781 114.003906 249.523438 118.308594 244.636719 C 118.308594 244.636719 119.410156 244.578125 121.613281 244.460938 C 121.382812 244.894531 121.804688 245.1875 122.890625 245.332031 C 122.890625 245.332031 128.363281 245.117188 139.304688 244.695312 C 139.230469 247.710938 139.191406 249.21875 139.191406 249.21875 L 137.554688 249.273438 C 137.394531 248.234375 137.46875 247.140625 137.769531 246 C 134.824219 249.585938 136.976562 256.257812 140.816406 258.617188 C 136.199219 257.785156 133.898438 254.710938 133.910156 249.398438 L 119.765625 249.882812 C 119.75 248.878906 119.871094 247.707031 120.140625 246.375 C 117.234375 250.796875 119.074219 256.910156 123.824219 259.136719 Z M 169.234375 240.3125 C 169.328125 236.816406 169.460938 236.359375 169.816406 235.957031 C 171.824219 235.445312 174.894531 234.898438 177.242188 234.273438 C 158.871094 235.589844 149.6875 236.25 149.6875 236.25 C 149.6875 239.652344 149.6875 241.355469 149.6875 241.355469 C 162.722656 240.660156 169.234375 240.3125 169.234375 240.3125 Z M 191.429688 223.441406 C 179.976562 225.738281 175.058594 238.175781 177.058594 259.453125 C 176.398438 249.84375 177.414062 228.664062 191.050781 225.558594 C 199.855469 223.554688 207.039062 231.425781 209.546875 238.832031 C 209.546875 238.832031 215.40625 239.125 227.125 239.703125 C 226.578125 238.730469 225.511719 238 223.933594 237.5 C 216.238281 236.960938 212.390625 236.6875 212.390625 236.6875 C 208.96875 228.367188 202.070312 221.3125 191.433594 223.445312 Z M 258.277344 239.929688 C 258.28125 240.820312 258.324219 241.457031 258.324219 241.457031 C 258.324219 241.457031 260.777344 241.605469 265.691406 241.898438 C 264.464844 239.375 262.976562 237.148438 261.222656 235.230469 C 262.433594 238.015625 262.839844 239.648438 262.441406 240.132812 C 259.617188 239.996094 258.277344 239.933594 258.277344 239.933594 Z M 224.304688 229.90625 C 220.597656 229.089844 221.117188 228.738281 225.871094 228.859375 C 226.152344 224.675781 224.609375 222.277344 221.230469 221.667969 C 219.109375 221.359375 215.78125 221.339844 211.253906 221.609375 C 209.507812 221.871094 208.597656 223.050781 208.527344 225.148438 C 208.675781 226.78125 209.488281 227.726562 210.964844 227.988281 C 221.40625 230.660156 226.625 231.992188 226.625 231.992188 C 226.414062 231.167969 225.636719 230.46875 224.304688 229.902344 Z M 224.480469 227.703125 C 224.480469 227.703125 219.683594 227.351562 211.679688 226.824219 C 209.777344 226.671875 209.890625 222.347656 212.589844 222.886719 C 211.996094 223.28125 211.773438 223.738281 211.921875 224.25 C 215.128906 224.367188 216.738281 224.425781 216.738281 224.425781 C 217.039062 223.480469 217.476562 223.355469 218.042969 224.050781 C 218.53125 224.597656 218.832031 225.382812 218.941406 226.398438 C 219.578125 225.726562 219.757812 225.097656 219.492188 224.511719 C 222.257812 225.980469 223.226562 226.496094 223.226562 226.496094 C 223.320312 225.421875 222.765625 224.0625 221.640625 223.117188 C 222.90625 223.796875 224.453125 224.507812 224.480469 227.699219 Z M 222.453125 199.117188 L 219.191406 199.554688 C 219.191406 199.554688 219.167969 198.9375 219.113281 197.421875 C 219.054688 195.886719 217.410156 194.914062 216.027344 194.648438 C 216.027344 194.648438 214.492188 194.648438 211.421875 194.648438 C 211.054688 194.671875 210.804688 194.515625 210.675781 194.171875 C 214.484375 194.179688 216.386719 194.183594 216.386719 194.183594 C 217.0625 194.222656 218.078125 194.808594 219.425781 195.9375 C 221.472656 196.160156 222.480469 196.496094 222.453125 196.953125 Z M 198.492188 193.070312 C 183.992188 191.503906 176.742188 190.722656 176.742188 190.722656 C 176.214844 190.722656 175.21875 190.132812 173.753906 188.953125 C 173.753906 188.953125 173.347656 189.246094 172.535156 189.824219 C 172.40625 189.042969 172.222656 187.652344 172.464844 186.875 C 172.660156 186.25 172.996094 185.695312 173.691406 185.777344 C 183.003906 186.859375 190.476562 187.921875 196.117188 188.953125 C 203.386719 190.964844 207.019531 191.96875 207.019531 191.96875 C 210.035156 195.605469 211.542969 197.421875 211.542969 197.421875 C 202.84375 194.519531 198.492188 193.070312 198.492188 193.070312 Z M 196.203125 189.808594 C 196.566406 190.0625 197.261719 190.804688 198.292969 192.042969 C 191.554688 191.4375 184.371094 190.636719 176.742188 189.632812 C 176.742188 189.632812 176.039062 188.929688 174.625 187.53125 C 174.332031 187.144531 174.332031 186.859375 174.625 186.671875 C 183.6875 187.792969 190.878906 188.839844 196.203125 189.804688 Z M 221.253906 207.097656 C 222.074219 215.050781 222.480469 219.027344 222.480469 219.027344 C 222.480469 219.027344 222.503906 213.402344 222.542969 202.148438 C 222.613281 201.316406 223.019531 200.65625 223.761719 200.175781 L 209.171875 202.160156 L 208.1875 198.335938 C 208.222656 199.132812 208.355469 200.433594 208.582031 202.242188 L 200.195312 203.378906 C 199.5625 203.320312 198.871094 203.257812 198.128906 203.199219 L 197.105469 196.394531 L 195.769531 196.339844 L 196.785156 203.097656 C 191.078125 202.6875 183.179688 202.347656 177.628906 202.21875 C 176.5625 202.1875 176.136719 201.917969 175.945312 201.058594 C 175.945312 201.058594 175.445312 197.929688 174.4375 191.664062 C 174.4375 191.664062 174.070312 191.664062 173.335938 191.664062 C 174.097656 197.113281 174.570312 200.496094 174.753906 201.820312 C 174.941406 203.136719 175.417969 203.429688 176.816406 203.554688 C 183.78125 203.714844 190.820312 204.179688 194.566406 204.484375 C 185.027344 205.441406 180.253906 205.921875 180.253906 205.921875 C 180.253906 210.679688 180.253906 213.09375 180.253906 213.171875 C 180.847656 212.308594 181.542969 211.847656 182.34375 211.777344 C 208.71875 208.605469 221.253906 207.097656 221.253906 207.097656 Z M 180.121094 215.90625 C 180.816406 215.90625 181.382812 216.433594 181.382812 217.082031 C 181.382812 217.730469 180.816406 218.257812 180.121094 218.257812 C 179.425781 218.257812 178.859375 217.730469 178.859375 217.082031 C 178.859375 216.433594 179.421875 215.90625 180.121094 215.90625 Z M 180.121094 223.378906 C 180.816406 223.378906 181.382812 223.902344 181.382812 224.550781 C 181.382812 225.199219 180.816406 225.726562 180.121094 225.726562 C 179.425781 225.726562 178.859375 225.199219 178.859375 224.550781 C 178.859375 223.902344 179.421875 223.378906 180.121094 223.378906 Z M 180.121094 219.78125 C 180.816406 219.78125 181.382812 220.308594 181.382812 220.957031 C 181.382812 221.601562 180.816406 222.128906 180.121094 222.128906 C 179.425781 222.128906 178.859375 221.601562 178.859375 220.957031 C 178.859375 220.308594 179.421875 219.78125 180.121094 219.78125 Z M 178.871094 222.796875 C 177.601562 223.707031 177.492188 225.023438 178.550781 226.742188 C 178.199219 226.769531 177.804688 226.738281 177.363281 226.652344 C 177.363281 226.652344 177.394531 222.824219 177.453125 215.167969 C 177.480469 214.859375 178.226562 214.753906 179.683594 214.847656 C 179.164062 215.332031 178.902344 215.574219 178.902344 215.574219 C 177.492188 216.785156 177.507812 217.964844 178.960938 219.113281 C 177.519531 220.265625 177.488281 221.496094 178.871094 222.796875 Z M 168.835938 231.527344 C 170.863281 230.996094 171.945312 229.894531 172.082031 228.21875 C 171.589844 229.175781 170.488281 229.773438 168.777344 230.015625 C 168.777344 230.015625 164.851562 230.363281 157.003906 231.0625 C 155.113281 231.054688 154.164062 229.601562 154.160156 226.714844 C 154.160156 226.714844 154.304688 216.15625 154.597656 195.039062 C 154.671875 193.832031 155.125 193.085938 155.960938 192.808594 C 155.960938 192.808594 155.960938 192.382812 155.960938 191.53125 C 154.140625 192.285156 153.3125 193.527344 153.464844 195.273438 C 153.15625 216.464844 153.003906 227.0625 153.003906 227.0625 C 152.933594 230.722656 154.285156 232.539062 157.0625 232.515625 C 164.914062 231.855469 168.835938 231.527344 168.835938 231.527344 Z M 173.699219 204.046875 L 171.675781 190.601562 C 171.097656 188.316406 169.804688 187.015625 167.4375 187.691406 L 166.097656 188.078125 L 166.097656 185.164062 L 169.910156 186.316406 C 170.796875 186.71875 171.125 186.488281 170.894531 185.621094 C 164.628906 183.53125 161.5 182.488281 161.5 182.488281 C 160.042969 182.207031 159.347656 182.785156 159.410156 184.230469 C 159.414062 190.402344 159.28125 190.847656 159.007812 185.566406 C 157.574219 186.378906 156.859375 186.785156 156.859375 186.785156 C 156.746094 194.480469 156.6875 198.328125 156.6875 198.328125 C 156.964844 198.78125 157.699219 198.972656 158.890625 198.910156 C 159.835938 199.359375 159.507812 199.648438 157.90625 199.78125 C 156.285156 199.820312 155.453125 199.433594 155.414062 198.621094 C 154.109375 200.054688 154.273438 202.492188 155.664062 203.738281 C 157.351562 205.257812 161.015625 205.117188 161.5625 201.402344 C 159.554688 201.183594 160.617188 200.914062 164.753906 200.589844 C 168.757812 202.714844 171.121094 204 171.121094 204 C 166.609375 204.066406 164.789062 205.125 164.726562 205.929688 C 164.75 219.886719 164.757812 226.546875 164.757812 226.546875 C 164.972656 227.03125 165.550781 227.59375 167.921875 227.648438 C 165.964844 226.921875 165.578125 226.5 166.757812 226.375 C 169.738281 226.277344 172.832031 226.253906 176.039062 226.316406 L 176.089844 223.542969 C 171.347656 223.308594 167.523438 223.457031 166.367188 223.648438 L 166.386719 219.761719 C 168.664062 219.660156 171.457031 219.6875 174.765625 219.84375 C 174.765625 219.84375 174.761719 219.363281 174.753906 218.394531 C 171.933594 218.058594 169.203125 218.011719 166.390625 218.160156 L 166.425781 209.546875 C 171.082031 208.828125 174.964844 208.90625 178.070312 209.785156 L 178.070312 208.066406 C 175.132812 207.152344 171.230469 207.019531 166.355469 207.679688 C 166.023438 207.800781 165.839844 207.671875 165.800781 207.296875 C 169.476562 206.285156 173.566406 206.144531 178.070312 206.875 L 178.070312 206.046875 C 177.921875 205.1875 176.453125 204.261719 173.804688 204.101562 L 173.707031 204.050781 Z M 165.230469 188.328125 L 163.585938 188.800781 C 163.585938 189.460938 163.585938 189.789062 163.585938 189.789062 L 165.230469 189.363281 L 165.230469 199.265625 C 165.21875 199.515625 165.097656 199.613281 164.921875 199.613281 C 164.921875 199.613281 163.878906 199.679688 161.441406 199.835938 C 160.65625 199.878906 161.003906 199.394531 162.488281 198.382812 C 162.488281 198.382812 162.566406 194.171875 162.722656 185.738281 C 162.722656 185.738281 162.488281 185.625 162.027344 185.390625 C 161.378906 185.085938 160.859375 185.238281 160.460938 185.855469 C 160.132812 184.234375 160.59375 183.574219 161.855469 183.882812 L 165.234375 184.90625 L 165.234375 188.328125 Z M 166.101562 189.144531 L 167.527344 188.773438 C 168.898438 188.675781 169.855469 189.445312 170.226562 190.75 L 172.085938 203.203125 C 170.695312 202.476562 168.570312 201.375 166.101562 200.113281 Z M 165.125 245.632812 L 165.125 255.664062 C 165.125 255.664062 162.960938 255.664062 159.328125 255.664062 C 159.328125 255.664062 159.40625 256.246094 159.558594 257.40625 C 159.558594 257.40625 155.09375 257.40625 146.160156 257.40625 C 146.160156 257.40625 146.101562 256.769531 145.984375 255.492188 C 148.921875 255.492188 150.394531 255.492188 150.394531 255.492188 C 150.625 248.609375 150.742188 245.167969 150.742188 245.167969 C 160.214844 244.550781 164.953125 244.242188 164.953125 244.242188 C 169.671875 244.628906 172.03125 244.820312 172.03125 244.820312 C 167.429688 245.363281 165.128906 245.636719 165.128906 245.636719 Z M 159.121094 200.980469 C 160.011719 201.945312 160.453125 202.429688 160.453125 202.429688 C 158.597656 204.160156 157.027344 204.097656 155.753906 202.253906 C 156.183594 202.671875 156.625 202.816406 157.085938 202.6875 C 157.085938 202.6875 157.765625 202.117188 159.117188 200.980469 Z M 256.671875 210.101562 C 257.019531 230.945312 257.195312 241.367188 257.195312 241.367188 C 257.195312 241.367188 248.226562 240.785156 230.277344 239.625 C 229.054688 239.355469 228.4375 238.332031 228.421875 236.550781 C 228.421875 236.550781 228.25 234.15625 227.730469 227.058594 C 227.511719 224.042969 226.96875 222.789062 224.160156 221.207031 C 224.160156 221.207031 224.160156 214.90625 224.160156 202.296875 C 224.441406 201.128906 225.507812 200.292969 227.351562 199.804688 C 227.96875 199.664062 228.695312 199.582031 229.539062 199.566406 C 228.984375 200.238281 228.6875 201.179688 228.652344 202.390625 C 228.960938 225.148438 229.191406 225.207031 229.347656 202.5625 C 229.535156 200.191406 231.082031 199.601562 234.066406 199.917969 C 239.769531 200.71875 246.039062 202.054688 252.871094 203.925781 C 255.484375 205.011719 256.753906 207.066406 256.667969 210.105469 Z M 253.625 238.367188 C 240.773438 237.335938 234.164062 236.871094 234.164062 236.871094 C 232.472656 236.730469 231.347656 236.492188 231.378906 234.65625 C 231.378906 234.65625 231.242188 224.863281 231.203125 207.070312 C 231.097656 205.203125 231.988281 204.429688 233.871094 204.75 C 239.644531 205.667969 245.984375 206.789062 252.898438 208.113281 C 254.003906 208.421875 254.753906 209.308594 254.796875 210.609375 C 255.136719 227.761719 255.304688 236.335938 255.304688 236.335938 C 255.410156 237.585938 254.851562 238.261719 253.621094 238.367188 Z M 263.371094 228.355469 C 263.695312 229.351562 263.792969 230.316406 263.660156 231.257812 C 263.570312 231.621094 262.292969 232.085938 259.832031 232.652344 C 259.832031 232.652344 259.839844 231.746094 259.859375 229.925781 C 261.09375 230.386719 261.707031 230.621094 261.707031 230.621094 C 262.800781 230.757812 263.351562 230.007812 263.371094 228.359375 Z M 263.371094 228.355469 " fill-opacity="1" fill-rule="evenodd"></path><g clip-path="url(#c7ffd2a95f)"><path fill="#FFFFFF" d="M 170.988281 264.066406 C 231.820312 264.066406 281.136719 265.449219 281.136719 267.152344 C 281.136719 268.859375 231.820312 270.242188 170.988281 270.242188 C 110.152344 270.242188 60.835938 268.855469 60.835938 267.152344 C 60.835938 265.445312 110.152344 264.066406 170.988281 264.066406 Z M 170.988281 264.066406 " fill-opacity="1" fill-rule="evenodd"></path></g></svg>